<svg xmlns="http://www.w3.org/2000/svg" xmlns:xlink="http://www.w3.org/1999/xlink" width="64" height="64" viewBox="0 0 64 64">
  <defs>
    <clipPath id="clip-ic-benefit-content-4">
      <rect width="64" height="64"/>
    </clipPath>
  </defs>
  <g id="ic-benefit-content-4" clip-path="url(#clip-ic-benefit-content-4)">
    <g id="Group_50643" data-name="Group 50643" transform="translate(-757 -974)">
      <g id="Group_47506" data-name="Group 47506" transform="translate(209 -2073)">
        <circle id="Ellipse_33" data-name="Ellipse 33" cx="32" cy="32" r="32" transform="translate(548 3047)" fill="#1c75f1"/>
      </g>
      <path id="Path_43348" data-name="Path 43348" d="M505.7,139.758l3.174,6.722a1.307,1.307,0,0,0,.98.744l7.1,1.078a1.377,1.377,0,0,1,.721,2.32l-5.136,5.232a1.4,1.4,0,0,0-.374,1.2l1.212,7.388a1.314,1.314,0,0,1-1.888,1.434l-6.348-3.488a1.251,1.251,0,0,0-1.211,0l-6.348,3.488a1.314,1.314,0,0,1-1.888-1.434l1.212-7.388a1.4,1.4,0,0,0-.374-1.2l-5.136-5.232a1.377,1.377,0,0,1,.721-2.32l7.1-1.078a1.307,1.307,0,0,0,.98-.744l3.174-6.722A1.277,1.277,0,0,1,505.7,139.758Z" transform="translate(284.466 853.48)" fill="none" stroke="#fff" stroke-linecap="round" stroke-linejoin="round" stroke-width="2"/>
    </g>
  </g>
</svg>