<svg xmlns="http://www.w3.org/2000/svg" xmlns:xlink="http://www.w3.org/1999/xlink" width="80" height="80" viewBox="0 0 80 80">
  <defs>
    <clipPath id="clip-ic-ignore-3">
      <rect width="80" height="80"/>
    </clipPath>
  </defs>
  <g id="ic-ignore-3" clip-path="url(#clip-ic-ignore-3)">
    <g id="Group_50629" data-name="Group 50629">
      <g id="Group_50626" data-name="Group 50626">
        <circle id="Ellipse_33" data-name="Ellipse 33" cx="40" cy="40" r="40" fill="#1c75f1"/>
      </g>
      <g id="Group_50615" data-name="Group 50615" transform="translate(13 13)">
        <rect id="Rectangle_20606" data-name="Rectangle 20606" width="54" height="54" fill="none"/>
        <path id="Path_43317" data-name="Path 43317" d="M97,39.716a3.58,3.58,0,0,1-3.571,3.589H75.571A3.58,3.58,0,0,1,72,39.716V14.589A3.58,3.58,0,0,1,75.571,11H87.679a3.562,3.562,0,0,1,2.56,1.087l5.75,5.944C96.637,18.7,97,19.039,97,19.974h0" transform="translate(-59 0)" fill="none" stroke="#fff" stroke-linecap="round" stroke-miterlimit="10" stroke-width="2"/>
        <path id="Path_43318" data-name="Path 43318" d="M88,11v5.384a3.589,3.589,0,0,0,3.589,3.59L97,20" transform="translate(-59 0)" fill="none" stroke="#fff" stroke-linecap="round" stroke-miterlimit="10" stroke-width="2"/>
        <g id="Rectangle_20607" data-name="Rectangle 20607" transform="translate(39 23) rotate(90)" fill="none" stroke="#fff" stroke-linecap="round" stroke-miterlimit="10" stroke-width="2">
          <rect width="12" height="2" rx="1" stroke="none"/>
          <rect x="1" y="1" width="10" fill="none"/>
        </g>
        <g id="Group_50614" data-name="Group 50614" transform="translate(33 30)">
          <path id="Path_43319" data-name="Path 43319" d="M102,30l-5,5-5-5" transform="translate(-92 -30)" fill="none" stroke="#fff" stroke-linecap="round" stroke-linejoin="round" stroke-width="2"/>
        </g>
      </g>
    </g>
  </g>
</svg>