<svg xmlns="http://www.w3.org/2000/svg" width="512" height="512" viewBox="0 0 512 512">
  <g id="Group_6" data-name="Group 6" transform="translate(-2597 -127)">
    <g id="Group_5" data-name="Group 5">
      <g id="Group_4" data-name="Group 4">
        <circle id="Ellipse_2" data-name="Ellipse 2" cx="240" cy="240" r="240" transform="translate(2609 131)" fill="#bbb"/>
        <g id="Group_3" data-name="Group 3" transform="translate(688 55)">
          <g id="user_2_" data-name="user (2)" transform="translate(1909 72)">
            <g id="Group_1" data-name="Group 1">
              <path id="Path_4" data-name="Path 4" d="M256,0C114.844,0,0,114.844,0,256S114.844,512,256,512,512,397.156,512,256,397.156,0,256,0Zm0,74.667A122.667,122.667,0,1,1,133.333,197.333,122.81,122.81,0,0,1,256,74.667Zm0,394.666c-69.707,0-131.52-33.755-170.473-85.615C128.2,363.184,189.148,341.333,256,341.333s127.807,21.854,170.474,42.383C387.521,435.577,325.708,469.333,256,469.333Z" fill="#fff"/>
            </g>
          </g>
        </g>
      </g>
    </g>
  </g>
</svg>